<?xml version="1.0" standalone="no"?><!DOCTYPE svg PUBLIC "-//W3C//DTD SVG 1.1//EN" "http://www.w3.org/Graphics/SVG/1.1/DTD/svg11.dtd"><svg t="1561431423936" class="icon" viewBox="0 0 1024 1024" version="1.1" xmlns="http://www.w3.org/2000/svg" p-id="7115" width="100" height="100" xmlns:xlink="http://www.w3.org/1999/xlink"><defs><style type="text/css"></style></defs><path d="M874.038346 149.961654A512 512 0 0 0 512 0C229.227263 0 0 229.227263 0 512S229.227263 1024 512 1024 1024 794.772737 1024 512a512 512 0 0 0-149.961654-362.038346zM512 955.72952c-245.062078 0-443.72952-198.667441-443.72952-443.72952S266.937922 68.27048 512 68.27048 955.72952 266.937922 955.72952 512 757.062078 955.72952 512 955.72952z" p-id="7116" fill="#ffffff"></path><path d="M787.232894 308.161073a34.12952 34.12952 0 0 0-33.912134 10.983687v-0.34324L439.63352 632.48876 270.67924 463.866279a34.152402 34.152402 0 0 0-48.465519 48.133721l193.187039 193.19848a34.140961 34.140961 0 0 0 48.13372 0L801.45448 367.267039a34.12952 34.12952 0 0 0-14.221586-59.105966z" p-id="7117" fill="#ffffff"></path></svg>