<?xml version="1.0" standalone="no"?><!DOCTYPE svg PUBLIC "-//W3C//DTD SVG 1.1//EN" "http://www.w3.org/Graphics/SVG/1.1/DTD/svg11.dtd"><svg t="1561450152434" class="icon" viewBox="0 0 1024 1024" version="1.1" xmlns="http://www.w3.org/2000/svg" p-id="7441" width="50" height="50" xmlns:xlink="http://www.w3.org/1999/xlink"><defs><style type="text/css"></style></defs><path d="M444.598857 655.908571l297.380572-297.380571a18.285714 18.285714 0 1 1 25.856 25.856l-310.308572 310.308571a18.230857 18.230857 0 0 1-25.856 0l-181.028571-181.028571a18.285714 18.285714 0 1 1 25.856-25.837714l168.100571 168.082285zM512 1024C229.229714 1024 0 794.770286 0 512S229.229714 0 512 0s512 229.229714 512 512-229.229714 512-512 512z m0-36.571429c262.582857 0 475.428571-212.845714 475.428571-475.428571S774.582857 36.571429 512 36.571429 36.571429 249.417143 36.571429 512s212.845714 475.428571 475.428571 475.428571z" p-id="7442"></path></svg>